<svg width="20" height="20" viewBox="0 0 20 20" fill="none" xmlns="http://www.w3.org/2000/svg">
<g clip-path="url(#clip0_1_11)">
<path d="M11.8782 15.8557C12.0613 16.0388 12.0613 16.3356 11.8782 16.5187L10.1331 18.2637C7.81817 20.5787 4.05137 20.5788 1.73622 18.2637C-0.578782 15.9487 -0.578782 12.1819 1.73622 9.86687L3.48134 8.12175C3.66438 7.9387 3.96118 7.9387 4.14427 8.12175L5.69106 9.66855C5.87411 9.85159 5.87411 10.1484 5.69106 10.3315L3.94594 12.0766C2.84938 13.1732 2.84938 14.9574 3.94594 16.054C5.04251 17.1506 6.8268 17.1506 7.92344 16.054L9.66852 14.3089C9.85157 14.1259 10.1484 14.1259 10.3315 14.3089L11.8782 15.8557ZM9.66852 5.69105C9.85157 5.87409 10.1484 5.87409 10.3315 5.69105L12.0765 3.94597C13.1731 2.84929 14.9574 2.84937 16.054 3.94597C17.1506 5.04257 17.1506 6.82683 16.054 7.92343L14.3089 9.66851C14.1259 9.85155 14.1259 10.1484 14.3089 10.3314L15.8557 11.8782C16.0388 12.0613 16.3356 12.0613 16.5186 11.8782L18.2638 10.1331C20.5788 7.81808 20.5788 4.05128 18.2638 1.73624C15.9487 -0.578759 12.1819 -0.578759 9.86684 1.73624L8.12177 3.48132C7.93872 3.66437 7.93872 3.96116 8.12177 4.14425L9.66852 5.69105ZM18.8415 19.7254L19.7254 18.8416C20.0915 18.4754 20.0915 17.8818 19.7254 17.5157L2.48427 0.274561C2.11813 -0.0915714 1.52454 -0.0915714 1.15844 0.274561L0.274539 1.15847C-0.0915942 1.5246 -0.0915942 2.11819 0.274539 2.48429L17.5157 19.7254C17.8818 20.0915 18.4754 20.0915 18.8415 19.7254Z" fill="#0386FF"/>
</g>
<defs>
<clipPath id="clip0_1_11">
<rect width="20" height="20" fill="white"/>
</clipPath>
</defs>
</svg>
